<svg xmlns="http://www.w3.org/2000/svg" xmlns:xlink="http://www.w3.org/1999/xlink" preserveAspectRatio="xMidYMid" width="15" height="28" viewBox="0 0 15 28">
  <defs>
    <style>

      .cls-2 {
        fill: #3a529f;
      }
    </style>
  </defs>
  <path d="M14.468,0.203 C14.016,0.137 12.459,0.003 10.651,0.003 C6.868,0.003 4.274,2.313 4.274,6.548 C4.274,6.548 4.274,10.197 4.274,10.197 C4.274,10.197 0.005,10.197 0.005,10.197 C0.005,10.197 0.005,15.151 0.005,15.151 C0.005,15.151 4.274,15.151 4.274,15.151 C4.274,15.151 4.274,27.856 4.274,27.856 C4.274,27.856 9.396,27.856 9.396,27.856 C9.396,27.856 9.396,15.151 9.396,15.151 C9.396,15.151 13.647,15.151 13.647,15.151 C13.647,15.151 14.300,10.197 14.300,10.197 C14.300,10.197 9.396,10.197 9.396,10.197 C9.396,10.197 9.396,7.033 9.396,7.033 C9.396,5.610 9.781,4.623 11.840,4.623 C11.840,4.623 14.468,4.623 14.468,4.623 C14.468,4.623 14.468,0.203 14.468,0.203 Z" id="path-1" class="cls-2" fill-rule="evenodd"/>
</svg>
